<svg display="none" xmlns="http://www.w3.org/2000/svg">
  <symbol id="icon-search" viewBox="0 0 19 19">
    <path d="M18.3691 17.2967L13.9457 12.8732C15.0256 11.5559 15.6713 9.8748 15.6713 8.03789C15.6713 3.82598 12.2535 0.408203 8.0416 0.408203C3.82598 0.408203 0.408203 3.82598 0.408203 8.0416C0.408203 12.2572 3.82598 15.675 8.0416 15.675C9.8748 15.675 11.5596 15.0293 12.877 13.9494L17.2967 18.3691C17.5936 18.666 18.0723 18.666 18.3691 18.3691C18.666 18.0723 18.666 17.5936 18.3691 17.2967ZM1.92227 8.0416C1.92227 4.66465 4.66094 1.92598 8.03789 1.92598C11.4148 1.92598 14.1535 4.66465 14.1535 8.0416C14.1535 11.4186 11.4148 14.1572 8.03789 14.1572C4.66094 14.1572 1.92227 11.4186 1.92227 8.0416Z" fill="black"/>
  </symbol>
</svg>